<svg xmlns="http://www.w3.org/2000/svg" width="40" height="40" viewBox="0 0 40 40">
  <g fill="none">
    <rect width="40" height="40" fill="#003A70"/>
    <rect width="4.417" height="14.183" x="9.717" y="15.433" fill="#FFF"/>
    <path fill="#FFF" d="M11.9166667 13.5C10.8798698 13.5042882 9.94369525 12.8803989 9.54856366 11.9218389 9.15343207 10.9632789 9.3780184 9.86090802 10.1166667 9.13333333 10.8451468 8.39894842 11.9469439 8.18122804 12.9 8.58333333 14.04031 9.04045605 14.6925808 10.2456639 14.4516477 11.4503295 14.2107146 12.6549952 13.145077 13.5166213 11.9166667 13.5zM30.6333333 29.6333333L26.2333333 29.6333333 26.2333333 22.7333333C26.2333333 21.0666667 26.2333333 18.9666667 23.9333333 18.9666667 21.6333333 18.9666667 21.3 20.75 21.3 22.6L21.3 29.6333333 16.9 29.6333333 16.9 15.4333333 21.1166667 15.4333333 21.1166667 17.3833333C21.9729109 15.9046759 23.5758342 15.0198622 25.2833333 15.0833333 29.75 15.0833333 30.5666667 18.0333333 30.5666667 21.85L30.6333333 29.6333333z"/>
  </g>
</svg>
