<svg xmlns="http://www.w3.org/2000/svg" width="40" height="40" viewBox="0 0 40 40">
  <g fill="none">
    <rect width="40" height="40" fill="#003A70"/>
    <path fill="#FFF" d="M16.6666667,29.5666667 C20.282531,29.6111406 23.7679381,28.2172567 26.3559994,25.6917089 C28.9440607,23.1661612 30.4227331,19.7158709 30.4666667,16.1 L30.4666667,15.1666667 C31.389925,14.4651216 32.1897763,13.6145755 32.8333333,12.65 C31.9273289,13.0149265 30.9727481,13.245149 30,13.3333333 C31.0066559,12.7317551 31.7592629,11.7835888 32.1166667,10.6666667 C31.1693516,11.2329957 30.1321896,11.6332049 29.05,11.85 C27.5621855,10.2490037 25.1829045,9.85042165 23.2545556,10.8791352 C21.3262066,11.9078487 20.33219,14.105979 20.8333333,16.2333333 C16.940106,16.06662 13.3026404,14.2478872 10.8333333,11.2333333 C9.54922481,13.4326973 10.1991809,16.2516081 12.3166667,17.6666667 C11.551261,17.6449343 10.8023554,17.4391282 10.1333333,17.0666667 C10.1167581,19.4216868 11.8111848,21.4408786 14.1333333,21.8333333 C13.4227378,22.0329376 12.6758665,22.0671455 11.95,21.9333333 C12.602695,23.8852224 14.4091077,25.2183683 16.4666667,25.2666667 C14.7601998,26.6865495 12.619636,27.4804399 10.4,27.5166667 C10.0170705,27.5415519 9.63292946,27.5415519 9.25,27.5166667 C11.470421,28.9136355 14.0433905,29.6479437 16.6666667,29.6333333"/>
  </g>
</svg>
