<svg xmlns="http://www.w3.org/2000/svg" width="40" height="40" viewBox="0 0 40 40">
  <g fill="none">
    <rect width="40" height="40" fill="#003A70"/>
    <path fill="#FFF" d="M32.4,24.5166667 C32.6666469,21.4279664 32.6666469,18.3220336 32.4,15.2333333 C32.25,13.5666667 31.25,11.45 29.2,11.3666667 C23.0964592,10.9364897 16.9702075,10.9364897 10.8666667,11.3666667 C9.05,11.5666667 7.81666667,13.7833333 7.68333333,15.4666667 C7.38335169,18.4758757 7.38335169,21.5074577 7.68333333,24.5166667 C7.81666667,26.1833333 9.03333333,28.4166667 10.8666667,28.65 C16.9710544,29.0553987 23.0956122,29.0553987 29.2,28.65 C31.0078682,28.0510337 32.2729781,26.4169333 32.4,24.5166667 Z"/>
    <polygon fill="#003A70" points="17.483 25.05 25.05 20 17.483 14.95"/>
  </g>
</svg>
